<svg width="197" height="19" viewBox="0 0 197 19" fill="none" xmlns="http://www.w3.org/2000/svg">
    <path d="M8.07156 18.384C6.61556 18.384 5.24756 18.232 3.96756 17.928C2.68756 17.608 1.63156 17.192 0.799562 16.68L2.98356 12.504C4.79156 13.544 6.67956 14.064 8.64756 14.064C9.36756 14.064 9.91956 13.976 10.3036 13.8C10.6876 13.624 10.8796 13.384 10.8796 13.08C10.8796 12.792 10.6796 12.56 10.2796 12.384C9.89556 12.208 9.27956 12.016 8.43156 11.808C7.31156 11.52 6.38356 11.232 5.64756 10.944C4.91156 10.64 4.26356 10.184 3.70356 9.576C3.15956 8.952 2.88756 8.136 2.88756 7.128C2.88756 5.864 3.22356 4.76 3.89556 3.816C4.58356 2.856 5.56756 2.12 6.84756 1.608C8.12756 1.08 9.63956 0.816 11.3836 0.816C12.6316 0.816 13.7916 0.943999 14.8636 1.2C15.9516 1.44 16.8876 1.792 17.6716 2.256L15.6316 6.384C14.9756 5.968 14.2476 5.656 13.4476 5.448C12.6636 5.24 11.8556 5.136 11.0236 5.136C10.2396 5.136 9.63156 5.248 9.19956 5.472C8.76756 5.696 8.55156 5.96 8.55156 6.264C8.55156 6.568 8.74356 6.808 9.12756 6.984C9.52756 7.16 10.1756 7.352 11.0716 7.56C12.1596 7.816 13.0716 8.088 13.8076 8.376C14.5596 8.664 15.2076 9.112 15.7516 9.72C16.2956 10.328 16.5676 11.128 16.5676 12.12C16.5676 13.368 16.2236 14.464 15.5356 15.408C14.8476 16.352 13.8636 17.088 12.5836 17.616C11.3036 18.128 9.79956 18.384 8.07156 18.384ZM47.869 1.2L39.133 18H33.061L32.101 9.144L27.493 18H21.421L19.405 1.2H24.997L26.077 10.776L31.069 1.2H36.277L37.237 10.92L42.301 1.2H47.869ZM49.1268 1.2H54.7908L51.4308 18H45.7668L49.1268 1.2ZM60.2774 5.592H55.3574L56.2454 1.2H71.7494L70.8614 5.592H65.9414L63.4694 18H57.8054L60.2774 5.592ZM79.1781 18.384C77.4661 18.384 75.9541 18.072 74.6421 17.448C73.3461 16.808 72.3381 15.92 71.6181 14.784C70.9141 13.648 70.5621 12.344 70.5621 10.872C70.5621 8.92 71.0101 7.184 71.9061 5.664C72.8181 4.144 74.0741 2.96 75.6741 2.112C77.2901 1.248 79.1221 0.816 81.1701 0.816C82.7861 0.816 84.2181 1.112 85.4661 1.704C86.7141 2.28 87.6421 3.104 88.2501 4.176L84.1701 7.368C83.4181 6.056 82.2981 5.4 80.8101 5.4C79.9301 5.4 79.1461 5.616 78.4581 6.048C77.7701 6.48 77.2341 7.088 76.8501 7.872C76.4661 8.64 76.2741 9.52 76.2741 10.512C76.2741 11.504 76.5861 12.304 77.2101 12.912C77.8501 13.504 78.6901 13.8 79.7301 13.8C81.1541 13.8 82.4021 13.152 83.4741 11.856L86.8101 15.048C85.8341 16.248 84.7221 17.104 83.4741 17.616C82.2421 18.128 80.8101 18.384 79.1781 18.384ZM107.406 1.2L104.046 18H98.3815L99.6295 11.808H94.3975L93.1495 18H87.4855L90.8455 1.2H96.5095L95.3095 7.152H100.542L101.742 1.2H107.406ZM122.063 9.36C122.783 9.68 123.335 10.12 123.719 10.68C124.119 11.224 124.319 11.88 124.319 12.648C124.319 14.424 123.583 15.76 122.111 16.656C120.655 17.552 118.775 18 116.471 18H106.775L110.135 1.2H119.039C121.007 1.2 122.503 1.552 123.527 2.256C124.551 2.944 125.063 3.928 125.063 5.208C125.063 6.152 124.799 6.984 124.271 7.704C123.743 8.408 123.007 8.96 122.063 9.36ZM114.911 5.16L114.407 7.656H117.287C118.535 7.656 119.159 7.168 119.159 6.192C119.159 5.856 119.031 5.6 118.775 5.424C118.519 5.248 118.151 5.16 117.671 5.16H114.911ZM116.783 14.04C117.359 14.04 117.823 13.912 118.175 13.656C118.527 13.384 118.703 13 118.703 12.504C118.703 12.152 118.567 11.88 118.295 11.688C118.039 11.496 117.711 11.4 117.311 11.4H113.663L113.135 14.04H116.783ZM128.697 1.2H134.361L131.889 13.608H139.473L138.585 18H125.337L128.697 1.2ZM152.624 15.072H146.216L144.536 18H138.56L149.264 1.2H154.832L158.816 18H153.176L152.624 15.072ZM151.832 10.992L151.016 6.696L148.544 10.992H151.832ZM163.08 1.2H170.664C172.424 1.2 173.944 1.488 175.224 2.064C176.52 2.64 177.512 3.464 178.2 4.536C178.888 5.608 179.232 6.872 179.232 8.328C179.232 10.264 178.784 11.968 177.888 13.44C176.992 14.896 175.744 16.024 174.144 16.824C172.56 17.608 170.752 18 168.72 18H159.72L163.08 1.2ZM168.912 13.584C170.368 13.584 171.496 13.128 172.296 12.216C173.112 11.288 173.52 10.104 173.52 8.664C173.52 7.688 173.216 6.936 172.608 6.408C172.016 5.88 171.152 5.616 170.016 5.616H167.856L166.272 13.584H168.912ZM187.612 5.472L187.228 7.44H194.332L193.516 11.52H186.388L185.956 13.728H194.38L193.516 18H179.548L182.908 1.2H196.564L195.7 5.472H187.612Z" fill="#121213"/>
</svg>
